<?xml version="1.0" encoding="iso-8859-1"?>
<!-- Uploaded to: SVG Repo, www.svgrepo.com, Generator: SVG Repo Mixer Tools -->
<svg fill="#000000" version="1.1" id="Capa_1" xmlns="http://www.w3.org/2000/svg" xmlns:xlink="http://www.w3.org/1999/xlink" 
	 viewBox="0 0 60 60" xml:space="preserve">
<g>
	<g>
		<path d="M59,36h-1V1c0-0.6-0.4-1-1-1H3C2.4,0,2,0.4,2,1v35H1c-0.6,0-1,0.4-1,1v13c0,0.6,0.4,1,1,1h10v-2H2V38h1h54h1v11H33v2h26
			c0.6,0,1-0.4,1-1V37C60,36.4,59.6,36,59,36z M4,36V2h52v34H4z"/>
		<path d="M34,6H7C6.4,6,6,6.4,6,7v24c0,0.6,0.4,1,1,1h27c0.6,0,1-0.4,1-1V7C35,6.4,34.6,6,34,6z M33,24h-7V8h7V24z M24,8v16H8V8H24
			z M8,30v-4h25v4H8z"/>
		<path d="M35,44v-2h-5H14H9v2h4v15c0,0.6,0.4,1,1,1h16c0.6,0,1-0.4,1-1V44H35z M25,44c0,1.1-0.9,2-2,2h-2c-1.1,0-2-0.9-2-2H25z
			 M29,58H15V44h2c0,2.2,1.8,4,4,4h2c2.2,0,4-1.8,4-4h2V58z"/>
		<path d="M53,6H39c-0.6,0-1,0.4-1,1v6c0,0.6,0.4,1,1,1h14c0.6,0,1-0.4,1-1V7C54,6.4,53.6,6,53,6z M52,12H40V8h12V12z"/>
		<rect x="39" y="17" width="2" height="2"/>
		<rect x="43" y="17" width="2" height="2"/>
		<rect x="47" y="17" width="2" height="2"/>
		<rect x="51" y="17" width="2" height="2"/>
		<rect x="39" y="21" width="2" height="2"/>
		<rect x="43" y="21" width="2" height="2"/>
		<rect x="47" y="21" width="2" height="2"/>
		<rect x="51" y="21" width="2" height="2"/>
		<rect x="39" y="25" width="2" height="2"/>
		<rect x="43" y="25" width="2" height="2"/>
		<rect x="47" y="25" width="2" height="2"/>
		<rect x="51" y="25" width="2" height="2"/>
		<rect x="39" y="29" width="2" height="2"/>
		<rect x="43" y="29" width="2" height="2"/>
		<rect x="47" y="29" width="2" height="2"/>
		<rect x="51" y="29" width="2" height="2"/>
		<rect x="37" y="42" width="4" height="2"/>
		<rect x="43" y="42" width="4" height="2"/>
		<path d="M18,53h-2v3c0,0.6,0.4,1,1,1h3v-2h-2V53z"/>
		<path d="M26,55h-2v2h3c0.6,0,1-0.4,1-1v-3h-2V55z"/>
		<rect x="28" y="11" width="3" height="2"/>
		<rect x="28" y="15" width="3" height="2"/>
		<rect x="28" y="19" width="3" height="2"/>
		<path d="M14,21h1v1h2v-1h1c1.2,0,2-0.8,2-2v-2c0-1.2-0.8-2-2-2h-4v-2h4v1h2v-1c0-1.2-0.8-2-2-2h-1v-1h-2v1h-1c-1.2,0-2,0.8-2,2v2
			c0,1.2,0.8,2,2,2h4v2h-4v-1h-2v1C12,20.2,12.8,21,14,21z"/>
	</g>
</g>
</svg>